<?xml version="1.0" encoding="UTF-8"?>
<!DOCTYPE svg PUBLIC "-//W3C//DTD SVG 1.1//EN" "http://www.w3.org/Graphics/SVG/1.1/DTD/svg11.dtd">
<!-- Creator: CorelDRAW X7 -->
<?xml-stylesheet href="#LogoOST-Soluções_Aprovada_mod.css" type="text/css"?>
<svg xmlns="http://www.w3.org/2000/svg" xml:space="preserve" width="57.6588mm" height="12.406mm" version="1.1" style="shape-rendering:geometricPrecision; text-rendering:geometricPrecision; image-rendering:optimizeQuality; fill-rule:evenodd; clip-rule:evenodd"
viewBox="0 0 1442 310"
 xmlns:xlink="http://www.w3.org/1999/xlink">
 <g id="Camada_x0020_1">
  <metadata id="CorelCorpID_0Corel-Layer"/>
  <g id="_912179916464">
   <g>
    <path class="fil0" d="M1339 209l0 -12 76 0c7,0 11,-3 11,-8l0 -11c0,-6 -4,-8 -11,-8l-51 0c-5,0 -9,-1 -13,-2 -3,-1 -6,-2 -8,-4 -2,-2 -4,-4 -5,-7 -1,-2 -1,-5 -1,-8l0 -5c0,-4 0,-6 1,-9 1,-3 3,-5 5,-7 2,-1 5,-3 8,-4 4,-1 8,-1 13,-1l73 0 0 12 -73 0c-7,0 -11,3 -11,8l0 6c0,5 4,8 11,8l51 0c5,0 9,0 13,1 3,1 6,3 8,5 2,1 4,4 5,6 1,3 1,6 1,9l0 10c0,4 0,6 -1,9 -1,2 -3,5 -5,7 -2,1 -5,3 -8,4 -4,1 -8,1 -13,1l-76 0z"/>
    <polygon class="fil0" points="1235,209 1235,123 1324,123 1324,135 1251,135 1251,157 1321,157 1321,170 1251,170 1251,197 1324,197 1324,209 "/>
    <path class="fil0" d="M1184 110c-1,2 -3,3 -5,3 -2,1 -3,1 -6,1 -1,0 -3,0 -5,-1 -1,0 -3,-1 -4,-1 -2,-1 -4,-2 -5,-2 -2,-1 -3,-1 -5,-1 -2,0 -4,1 -6,1 -2,1 -3,2 -5,4l0 -11c2,-1 3,-2 5,-3 2,0 4,0 6,0 2,0 3,0 5,0 1,1 3,2 5,2 1,1 3,1 4,2 2,0 4,1 5,1 3,0 5,-1 6,-2 2,0 4,-1 5,-3l0 10z"/>
    <path class="fil0" d="M1135 209c-5,0 -9,0 -13,-1 -3,-1 -6,-3 -8,-4 -2,-2 -4,-5 -5,-7 -1,-3 -1,-5 -1,-9l0 -44c0,-4 0,-6 1,-9 1,-3 3,-5 5,-7 2,-1 5,-3 8,-4 4,-1 8,-1 13,-1l57 0c5,0 9,0 13,1 3,1 6,3 8,4 3,2 4,4 5,7 1,3 2,5 2,9l0 44c0,4 -1,6 -2,9 -1,2 -2,5 -5,7 -2,1 -5,3 -8,4 -4,1 -8,1 -13,1l-57 0zm68 -66c0,-5 -3,-8 -11,-8l-57 0c-7,0 -11,3 -11,8l0 46c0,5 4,8 11,8l57 0c8,0 11,-3 11,-8l0 -46z"/>
    <polygon class="fil0" points="1036,222 1036,212 1060,212 1060,222 "/>
    <path class="fil0" d="M1025 209c-5,0 -10,0 -13,-1 -3,-1 -6,-3 -8,-4 -3,-2 -4,-5 -5,-7 -1,-3 -2,-5 -2,-9l0 -44c0,-4 1,-6 2,-9 1,-3 2,-5 5,-7 2,-1 5,-3 8,-4 3,-1 8,-1 13,-1l70 0 0 12 -70 0c-8,0 -11,3 -11,8l0 46c0,5 3,8 11,8l70 0 0 12 -70 0z"/>
    <path class="fil0" d="M901 209c-5,0 -9,0 -13,-1 -3,-1 -6,-3 -8,-4 -2,-2 -4,-5 -5,-7 -1,-3 -1,-5 -1,-9l0 -65 16 0 0 66c0,5 4,8 11,8l54 0c7,0 11,-3 11,-8l0 -66 16 0 0 65c0,4 0,6 -1,9 0,2 -1,5 -3,7 -2,1 -4,3 -8,4 -3,1 -7,1 -12,1l-57 0z"/>
    <polygon class="fil0" points="776,209 776,123 792,123 792,197 863,197 863,209 "/>
    <path class="fil0" d="M676 209c-5,0 -9,0 -13,-1 -3,-1 -6,-3 -8,-4 -3,-2 -4,-5 -5,-7 -1,-3 -2,-5 -2,-9l0 -44c0,-4 1,-6 2,-9 1,-3 2,-5 5,-7 2,-1 5,-3 8,-4 4,-1 8,-1 13,-1l57 0c5,0 9,0 13,1 3,1 6,3 8,4 2,2 4,4 5,7 1,3 1,5 1,9l0 44c0,4 0,6 -1,9 -1,2 -3,5 -5,7 -2,1 -5,3 -8,4 -4,1 -8,1 -13,1l-57 0zm68 -66c0,-5 -4,-8 -11,-8l-57 0c-8,0 -11,3 -11,8l0 46c0,5 3,8 11,8l57 0c7,0 11,-3 11,-8l0 -46z"/>
    <path class="fil0" d="M533 209l0 -12 75 0c8,0 11,-3 11,-8l0 -11c0,-6 -3,-8 -11,-8l-51 0c-5,0 -9,-1 -12,-2 -4,-1 -7,-2 -9,-4 -2,-2 -4,-4 -5,-7 -1,-2 -1,-5 -1,-8l0 -5c0,-4 0,-6 1,-9 1,-3 3,-5 5,-7 2,-1 5,-3 9,-4 3,-1 7,-1 12,-1l74 0 0 12 -74 0c-7,0 -11,3 -11,8l0 6c0,5 4,8 11,8l51 0c5,0 9,0 13,1 3,1 6,3 8,5 2,1 4,4 5,6 1,3 2,6 2,9l0 10c0,4 -1,6 -2,9 -1,2 -3,5 -5,7 -2,1 -5,3 -8,4 -4,1 -8,1 -13,1l-75 0z"/>
   </g>
   <g>
    <rect class="fil1" x="59" y="8" width="121" height="243"/>
    <polygon class="fil1" points="59,251 180,251 121,310 0,310 "/>
    <polygon class="fil1" points="0,67 59,8 59,251 0,310 "/>
    <polygon class="fil2" points="0,67 121,67 121,149 121,310 0,310 "/>
    <polygon class="fil3" points="154,277 121,310 121,246 "/>
    <polygon class="fil3" points="180,8 180,76 121,182 121,67 "/>
    <path class="fil4" d="M19 238c0,4 0,7 1,9 1,8 5,15 11,20 8,8 17,12 29,12 11,0 21,-4 28,-12 8,-8 12,-17 12,-29l0 -101c0,-3 0,-6 0,-9 -2,-7 -6,-14 -12,-20 -8,-8 -17,-12 -28,-12 -12,0 -21,4 -29,12 -8,8 -12,17 -12,29l0 101zm61 0c0,6 -2,11 -6,15 -4,4 -9,6 -14,6 -6,0 -11,-2 -15,-6 -3,-3 -4,-6 -5,-10 -1,-2 -1,-3 -1,-5l0 -101c0,-6 2,-11 6,-15 4,-4 9,-6 15,-6 5,0 10,2 14,6 3,3 5,7 6,10 0,2 0,3 0,5l0 101z"/>
    <polygon class="fil5" points="180,8 59,8 0,67 121,67 "/>
    <polygon class="fil6" points="103,233 224,233 290,291 169,291 "/>
    <polygon class="fil7" points="290,0 224,233 290,291 298,257 289,130 289,67 331,33 "/>
    <polygon class="fil8" points="170,0 290,0 224,233 103,233 "/>
    <path class="fil9" d="M176 89c-1,3 -2,6 -2,8 -1,6 -1,12 2,17 4,6 11,10 20,10 5,0 8,1 10,5 1,2 2,5 1,8 0,2 0,3 -1,4l-7 17c-1,5 -5,9 -9,12 -5,3 -9,5 -14,5l-4 0 -2 0 -19 0c-5,0 -10,4 -12,9 -1,4 1,8 5,8 9,0 17,0 26,0 9,0 18,-3 27,-10 9,-7 16,-15 19,-24l7 -17c1,-3 2,-5 2,-7 1,-7 0,-12 -3,-17 -4,-7 -10,-10 -19,-10 -5,0 -8,-2 -10,-5 -2,-3 -2,-6 -1,-9 0,-1 0,-2 1,-4l6 -17c2,-4 5,-9 10,-12 3,-2 6,-3 9,-4 0,0 22,0 24,-1 4,0 9,-3 11,-8 2,-5 0,-8 -5,-8l-24 0c-7,1 -15,3 -22,9 -9,7 -16,15 -19,24l-7 17z"/>
    <rect class="fil1" x="348" y="8" width="121" height="243"/>
    <polygon class="fil1" points="348,251 469,251 410,310 289,310 "/>
    <polygon class="fil1" points="289,67 348,8 348,251 289,310 "/>
    <polygon class="fil2" points="289,67 410,67 410,310 289,310 "/>
    <polygon class="fil7" points="469,8 469,251 410,310 410,67 "/>
    <polygon class="fil5" points="469,8 348,8 289,67 410,67 "/>
    <path class="fil4" d="M392 116c6,0 10,-5 10,-10 0,-6 -4,-10 -10,-10 -28,0 -57,0 -85,0 -6,0 -10,4 -10,10 0,5 4,10 10,10 11,0 22,0 33,0 1,51 2,102 2,153 0,6 4,10 10,10 5,0 10,-4 10,-10l-2 -153c11,0 22,0 32,0z"/>
   </g>
  </g>
 </g>
</svg>
